# xmcd
#
# Track frame offsets:
#	150
#	13343
#	26097
#	40813
#	53645
#	68743
#	81905
#	96448
#	111668
#	123664
#	136408
#	150062
#	162971
#	176359
#	190441
#	205632
#	219370
#	230667
#	242830
#	254899
#
# Disc length: 3573 seconds
#
# Revision: 1
# Processed by: cddbd v1.5.2PL0 Copyright (c) Steve Scherf et al.
# Submitted via: audiograbber 1.83.01
#
DISCID=200df314
DTITLE=Muddy Waters - Brothers In Blues
DYEAR=2008
DGENRE=Blues
TTITLE0=Mannish Boy
TTITLE1=I Just Want To Make Love To You
TTITLE2=Baby Please Don't Go
TTITLE3=I'm Your Hoochie Coochie Man
TTITLE4=Honey Bee
TTITLE5=She Moves Me
TTITLE6=Still A Fool
TTITLE7=They Call Me Muddy Waters
TTITLE8=Lone Distance Call
TTITLE9=Louisiana Blues
TTITLE10=I'm Ready
TTITLE11=Forty Days and Forty Nights
TTITLE12=Rollin' And Tumblin'
TTITLE13=Smokestack Lightin'
TTITLE14=Standing Around Cryin'
TTITLE15=I Be's Trouble
TTITLE16=Sugar Sweet
TTITLE17=Holing Wolf
TTITLE18=Trouble, No More
TTITLE19=Don't Go No Further
EXTD=
EXTT0=
EXTT1=
EXTT2=
EXTT3=
EXTT4=
EXTT5=
EXTT6=
EXTT7=
EXTT8=
EXTT9=
EXTT10=
EXTT11=
EXTT12=
EXTT13=
EXTT14=
EXTT15=
EXTT16=
EXTT17=
EXTT18=
EXTT19=
PLAYORDER=
